<svg width="20" height="20" viewBox="0 0 20 20" fill="none" xmlns="http://www.w3.org/2000/svg">
<path fill-rule="evenodd" clip-rule="evenodd" d="M7.96258 8.19337C8.19441 8.03881 8.33366 7.77862 8.33366 7.49999V4.16666C8.33366 2.78594 7.21437 1.66666 5.83366 1.66666H2.50033C2.04009 1.66666 1.66699 2.03975 1.66699 2.49999C1.66699 10.7843 9.21605 18.3333 17.5003 18.3333C17.9606 18.3333 18.3337 17.9602 18.3337 17.5V14.1667C18.3337 12.7859 17.2144 11.6667 15.8337 11.6667H12.5003C12.2217 11.6667 11.9615 11.8059 11.807 12.0377L10.2192 14.4194C8.48982 13.3012 6.9747 11.8243 5.80928 10.1241L5.58089 9.78115L7.96258 8.19337ZM12.9463 13.3333H15.8337C16.2939 13.3333 16.667 13.7064 16.667 14.1667V16.6378C15.0526 16.5261 13.4771 16.0943 12.0076 15.4096L11.6704 15.2472L12.9463 13.3333ZM3.36255 3.33332H5.83366C6.2939 3.33332 6.66699 3.70642 6.66699 4.16666V7.054L4.75314 8.3299C3.97435 6.76536 3.48285 5.07187 3.36255 3.33332Z" fill="#051C36"/>
</svg>
