<svg width="44" height="44" viewBox="0 0 44 44" fill="none" xmlns="http://www.w3.org/2000/svg">
<path fill-rule="evenodd" clip-rule="evenodd" d="M20.167 3.6665C29.2797 3.6665 36.667 11.0538 36.667 20.1665C36.667 24.0619 35.3171 27.6421 33.0596 30.4647L39.7967 37.2035C40.5126 37.9194 40.5126 39.0802 39.7967 39.7962C39.1358 40.4571 38.0959 40.5079 37.3767 39.9487L37.204 39.7962L30.4651 33.0591C27.6426 35.3166 24.0624 36.6665 20.167 36.6665C11.0543 36.6665 3.66699 29.2792 3.66699 20.1665C3.66699 11.0538 11.0543 3.6665 20.167 3.6665ZM20.167 7.33317C13.0793 7.33317 7.33366 13.0788 7.33366 20.1665C7.33366 27.2542 13.0793 32.9998 20.167 32.9998C27.2546 32.9998 33.0003 27.2542 33.0003 20.1665C33.0003 13.0788 27.2546 7.33317 20.167 7.33317Z" fill="url(#paint0_linear_247_912)"/>
<path d="M21.6667 11.6667C21.6667 10.7462 20.9205 10 20 10C19.0795 10 18.3333 10.7462 18.3333 11.6667V18.3333H11.6667C10.7462 18.3333 10 19.0795 10 20C10 20.9205 10.7462 21.6667 11.6667 21.6667H18.3333V28.3333C18.3333 29.2538 19.0795 30 20 30C20.9205 30 21.6667 29.2538 21.6667 28.3333V21.6667H28.3333C29.2538 21.6667 30 20.9205 30 20C30 19.0795 29.2538 18.3333 28.3333 18.3333H21.6667V11.6667Z" fill="url(#paint1_linear_247_912)"/>
<defs>
<linearGradient id="paint0_linear_247_912" x1="1.69901" y1="25.2998" x2="40.3337" y2="25.2998" gradientUnits="userSpaceOnUse">
<stop stop-color="#E10714"/>
<stop offset="1" stop-color="#01213F"/>
</linearGradient>
<linearGradient id="paint1_linear_247_912" x1="8.92655" y1="21.8" x2="30" y2="21.8" gradientUnits="userSpaceOnUse">
<stop stop-color="#E10714"/>
<stop offset="1" stop-color="#01213F"/>
</linearGradient>
</defs>
</svg>
