<svg width="24" height="24" viewBox="0 0 24 24" fill="none" xmlns="http://www.w3.org/2000/svg">
<path fill-rule="evenodd" clip-rule="evenodd" d="M12 1.99988C16.9706 1.99988 21 5.9856 21 10.9022C21 14.1557 18.2777 17.5957 12.9483 21.343L12 21.9999L11.4278 21.605C5.85042 17.7558 3 14.2314 3 10.9022C3 5.9856 7.02944 1.99988 12 1.99988ZM12 3.97818C8.13401 3.97818 5 7.07819 5 10.9022C5 13.3047 7.29672 16.2363 12 19.5817C16.7033 16.2363 19 13.3047 19 10.9022C19 7.07819 15.866 3.97818 12 3.97818ZM12 5.99988C14.2091 5.99988 16 7.79074 16 9.99988C16 12.209 14.2091 13.9999 12 13.9999C9.79086 13.9999 8 12.209 8 9.99988C8 7.79074 9.79086 5.99988 12 5.99988ZM12 7.99988C10.8954 7.99988 10 8.89531 10 9.99988C10 11.1044 10.8954 11.9999 12 11.9999C13.1046 11.9999 14 11.1044 14 9.99988C14 8.89531 13.1046 7.99988 12 7.99988Z" fill="#C4C4C4"/>
</svg>
