<svg width="20" height="20" viewBox="0 0 20 20" fill="none" xmlns="http://www.w3.org/2000/svg">
<path fill-rule="evenodd" clip-rule="evenodd" d="M15.8333 3.33334C17.214 3.33334 18.3333 4.45263 18.3333 5.83334V14.1667C18.3333 15.5474 17.214 16.6667 15.8333 16.6667H4.16663C2.78591 16.6667 1.66663 15.5474 1.66663 14.1667V5.83334C1.66663 4.45263 2.78591 3.33334 4.16663 3.33334H15.8333ZM16.6666 6.10668L10.5487 11.4605C10.2607 11.7125 9.84251 11.7335 9.5328 11.5235L9.45121 11.4605L3.33329 6.10751V14.1667C3.33329 14.6269 3.70639 15 4.16663 15H15.8333C16.2935 15 16.6666 14.6269 16.6666 14.1667V6.10668ZM15.4 5.00001H4.59829L9.99996 9.72604L15.4 5.00001Z" fill="#C4C4C4"/>
</svg>
