<svg width="20" height="20" viewBox="0 0 20 20" fill="none" xmlns="http://www.w3.org/2000/svg">
<path fill-rule="evenodd" clip-rule="evenodd" d="M9.99996 1.66666C14.6023 1.66666 18.3333 5.39762 18.3333 9.99999C18.3333 14.6024 14.6023 18.3333 9.99996 18.3333C5.39759 18.3333 1.66663 14.6024 1.66663 9.99999C1.66663 5.39762 5.39759 1.66666 9.99996 1.66666ZM9.99996 3.33332C6.31806 3.33332 3.33329 6.31809 3.33329 9.99999C3.33329 13.6819 6.31806 16.6667 9.99996 16.6667C13.6819 16.6667 16.6666 13.6819 16.6666 9.99999C16.6666 6.31809 13.6819 3.33332 9.99996 3.33332ZM9.99996 4.99999C10.4273 4.99999 10.7795 5.32169 10.8277 5.73614L10.8333 5.83332V9.65481L12.2559 11.0774C12.5813 11.4028 12.5813 11.9305 12.2559 12.2559C11.9555 12.5563 11.4828 12.5794 11.1559 12.3252L11.0774 12.2559L9.4107 10.5892C9.28047 10.459 9.19779 10.2901 9.17385 10.1095L9.16663 9.99999V5.83332C9.16663 5.37309 9.53972 4.99999 9.99996 4.99999Z" fill="#C4C4C4"/>
</svg>
