<svg width="31" height="31" viewBox="0 0 31 31" fill="none" xmlns="http://www.w3.org/2000/svg">
<path fill-rule="evenodd" clip-rule="evenodd" d="M17.3269 15.5003L24.1637 8.66353C24.6687 8.15849 24.6687 7.34216 24.1637 6.83712C23.6587 6.33208 22.8423 6.33208 22.3373 6.83712L15.5005 13.6739L8.66369 6.83712C8.15865 6.33208 7.34232 6.33208 6.83728 6.83712C6.33224 7.34216 6.33224 8.15849 6.83728 8.66353L13.6741 15.5003L6.83728 22.3371C6.33224 22.8422 6.33224 23.6585 6.83728 24.1635C7.08915 24.4154 7.41982 24.542 7.75049 24.542C8.08115 24.542 8.41182 24.4154 8.66369 24.1635L15.5005 17.3267L22.3373 24.1635C22.5892 24.4154 22.9198 24.542 23.2505 24.542C23.5812 24.542 23.9118 24.4154 24.1637 24.1635C24.6687 23.6585 24.6687 22.8422 24.1637 22.3371L17.3269 15.5003Z" fill="#E30613"/>
</svg>
