<svg width="608" height="348" viewBox="0 0 608 348" fill="none" xmlns="http://www.w3.org/2000/svg">
<mask id="mask0_220:682" style="mask-type:alpha" maskUnits="userSpaceOnUse" x="0" y="0" width="608" height="348">
<rect width="608" height="348" fill="#F1EEE7"/>
</mask>
<g mask="url(#mask0_220:682)">
<path d="M590.365 100.535C575.422 126.89 557.13 151.238 535.938 172.984C509.163 200.661 479.615 225.568 447.753 247.32C457.312 244.733 503.944 220.234 542.992 179.449C562.462 159.41 579.628 137.292 594.175 113.501C620.031 303.657 393.783 318.3 392.69 422.971C400.344 407.14 410.609 397.389 425.918 386.275C387.117 450.057 508.212 576.57 437.664 709.83C456.818 525.895 214.591 363.384 200.376 164.631C198.33 135.379 150.322 134.715 143.514 157.641C135.437 136.917 147.606 119.827 172.615 113.187C168.665 85.9968 187.924 77.5742 213.075 74.0793C222.493 72.7163 232.758 72.0523 243.022 71.3533C271.594 69.4661 282.106 72.2969 296.18 56.605C302.635 75.8617 288.667 100.955 269.125 105.253C278.966 106.057 285.104 114.725 290.713 124.755C306.445 94.2796 335.969 65.3421 354.418 40.249C390.503 -9.30811 431.244 -54.7063 409.798 -113.071C502.463 -41.8453 414.948 39.7248 370.679 95.9222C348.28 124.615 318.756 161.73 306.163 201.816C299.507 224.681 296.379 248.412 296.886 272.203C312.865 159.808 383.413 93.9651 447.365 34.5524C509.412 -23.0079 565.462 -75.1513 562.605 -158.434C634.916 -77.0385 575.056 23.299 510.258 88.8626C479.828 119.085 446.779 146.602 411.491 171.097C443.767 157.117 484.085 128.949 517.313 95.6426C551.529 60.694 584.616 11.4164 598.373 -33.4226C606.412 -18.4221 611.138 -1.89825 612.235 15.0511C614.14 44.4429 605.18 73.4502 590.471 100.535H590.365Z" fill="#FAF7EF"/>
<path d="M290.712 124.755C306.444 94.2793 335.969 65.3419 354.417 40.2488C390.502 -9.30837 431.244 -54.7066 409.797 -113.071C483.061 -18.395 335.969 66.2506 299.213 154.426C297.867 144.175 295.002 134.177 290.712 124.755Z" fill="#FAF7EF"/>
<path d="M296.887 272.203C312.866 159.808 383.414 93.9648 447.365 34.5522C509.412 -23.0082 565.463 -75.1515 562.606 -158.434C640.526 34.5522 311.913 80.9989 321.085 340.632C309.056 320.607 301.684 302.189 296.887 272.238V272.203Z" fill="#FAF7EF"/>
</g>
</svg>
