<svg width="948" height="502" viewBox="0 0 948 502" fill="none" xmlns="http://www.w3.org/2000/svg">
<mask id="mask0_204:1308" style="mask-type:alpha" maskUnits="userSpaceOnUse" x="0" y="0" width="948" height="502">
<rect width="948" height="502" fill="#F1EEE7"/>
</mask>
<g mask="url(#mask0_204:1308)">
<path d="M920.509 156.735C897.212 197.822 868.695 235.78 835.655 269.682C793.913 312.831 747.849 351.661 698.174 385.572C713.077 381.54 785.777 343.346 846.654 279.762C877.008 248.52 903.769 214.038 926.448 176.949C966.757 473.402 614.036 496.231 612.331 659.414C624.265 634.732 640.267 619.531 664.134 602.205C603.643 701.64 792.431 898.876 682.447 1106.63C712.307 819.873 334.675 566.517 312.513 256.66C309.323 211.056 234.479 210.021 223.865 245.763C211.272 213.454 230.244 186.81 269.234 176.458C263.075 134.069 293.101 120.938 332.31 115.489C346.993 113.365 362.996 112.329 378.999 111.24C423.542 108.297 439.93 112.711 461.872 88.2469C471.936 118.268 450.159 157.388 419.693 164.09C435.036 165.343 444.605 178.856 453.348 194.493C477.875 146.982 523.904 101.868 552.665 62.7478C608.922 -14.5121 672.438 -85.2882 639.003 -176.278C783.468 -65.2377 647.032 61.9305 578.016 149.543C543.096 194.275 497.067 252.138 477.435 314.633C467.059 350.279 462.183 387.275 462.972 424.365C487.884 249.141 597.868 146.491 697.57 53.8668C794.301 -35.8702 881.684 -117.162 877.23 -247C989.964 -120.104 896.642 36.3226 795.621 138.537C748.18 185.653 696.656 228.552 641.642 266.74C691.96 244.946 754.817 201.031 806.619 149.107C859.962 94.6216 911.545 17.7976 932.992 -52.1068C945.526 -28.7209 952.893 -2.96007 954.604 23.4641C957.574 69.286 943.605 114.509 920.674 156.735H920.509Z" fill="#FAF7EF"/>
<path d="M453.348 194.493C477.874 146.982 523.903 101.868 552.664 62.7479C608.921 -14.512 672.437 -85.2881 639.002 -176.278C753.221 -28.6781 523.903 103.285 466.601 240.751C464.502 224.77 460.036 209.183 453.348 194.493Z" fill="#FAF7EF"/>
<path d="M462.974 424.365C487.885 249.141 597.87 146.491 697.571 53.8667C794.303 -35.8702 881.686 -117.162 877.231 -247C998.71 53.8667 486.401 126.277 500.699 531.047C481.946 499.827 470.453 471.114 462.974 424.42V424.365Z" fill="#FAF7EF"/>
</g>
</svg>
