<svg width="139" height="88" viewBox="0 0 139 88" fill="none" xmlns="http://www.w3.org/2000/svg">
<path d="M14.1308 29.6859C17.3581 32.9596 20.7538 35.3386 21.6828 35.9946C19.2178 34.9237 16.1367 32.7617 13.6084 30.2053C10.9758 27.5235 8.4489 23.7408 7.38195 20.3014C6.73445 21.5481 6.41097 22.796 6.33738 24.0216C6.19208 26.277 6.88082 28.501 7.99899 30.5794H8.00977H7.99899C9.10583 32.6158 10.6211 34.507 12.1668 36.1391C15.3218 39.4439 18.6226 41.6473 18.9154 41.8452C18.1835 41.6473 14.6212 39.7658 11.6341 36.6377C10.2135 35.1418 8.8128 33.4267 7.71674 31.5768C5.74243 46.1791 23.0212 47.2907 23.1147 55.3233C22.5295 54.1084 21.7461 53.3591 20.5759 52.5076C23.5328 57.4017 14.2874 67.1088 19.6777 77.3354C18.2153 63.2223 36.7257 50.7508 37.8126 35.5052C37.9684 33.2602 41.6359 33.209 42.1569 34.9752C42.7742 33.3849 41.8442 32.0754 39.9333 31.5661C40.2355 29.4775 38.7623 28.8333 36.8405 28.563C36.1205 28.4592 35.3372 28.408 34.5535 28.3554C32.3698 28.2098 31.5651 28.4278 30.4898 27.2231C29.9981 28.6874 31.064 30.6202 32.5582 30.9428C31.8064 31.0048 31.3354 31.6699 30.9071 32.439C29.7056 30.1007 27.4488 27.8778 26.039 25.9544C23.2821 22.1505 20.1686 18.6695 21.8081 14.19C14.7255 19.6564 21.4215 25.9134 24.7963 30.2263C26.5096 32.4296 28.7662 35.2769 29.7267 38.3527C30.1447 39.8905 30.5205 41.8034 30.4372 43.7571C29.2147 35.131 23.8245 30.0903 18.9353 25.529C14.1936 21.1008 9.91022 17.1004 10.1294 10.709C4.60405 16.9545 9.17942 24.6553 14.1308 29.6859Z" fill="url(#paint0_linear_211:23)"/>
<path d="M30.2597 34.7153C30.3438 34.0291 30.5417 33.2602 30.9072 32.439C29.7057 30.1007 27.4489 27.8778 26.0391 25.9544C23.2822 22.1505 20.1687 18.6695 21.8082 14.19C16.2093 21.4551 27.4489 27.9499 30.2597 34.7153" fill="url(#paint1_linear_211:23)"/>
<path d="M28.5883 49.0054C29.5075 47.4677 30.0709 46.064 30.4372 43.7571C29.2148 35.131 23.8245 30.0903 18.9354 25.529C14.1937 21.1008 9.91024 17.1004 10.1294 10.709C4.17573 25.5081 29.2886 29.0825 28.5883 49.0054Z" fill="url(#paint2_linear_211:23)"/>
<path d="M54.9514 81.5676H55.7296V6.47656H54.9512L54.9514 81.5676ZM95.3985 51.8739H97.2342V57.6649H98.0745V51.8737H99.9095V51.1435H95.3985V51.8739ZM104.721 54.6459L102.199 51.1435H101.462V57.6649H102.301V52.6041L104.721 55.9036L107.139 52.6041V57.6649H107.978V51.1435H107.241L104.721 54.6459ZM130.856 53.9888C129.845 53.6075 129.448 53.2953 129.448 52.7076C129.448 52.1387 129.936 51.7385 130.57 51.7385C131.088 51.7385 131.452 51.9221 131.884 52.3304L132.483 51.7689C132.043 51.332 131.506 50.9905 130.588 50.9905C129.511 50.9905 128.587 51.705 128.587 52.7107C128.587 53.9574 129.483 54.3073 130.471 54.7106C131.133 54.9662 131.714 55.2973 131.714 56.0013C131.714 56.6948 131.038 57.0384 130.443 57.0384C129.756 57.0384 129.266 56.7857 128.814 56.1972L128.157 56.7786C128.672 57.4009 129.376 57.7885 130.468 57.7885C131.427 57.7885 132.597 57.2982 132.597 55.9372C132.597 54.9432 131.809 54.3484 130.856 53.9888ZM92.7207 53.9888C91.7097 53.6075 91.314 53.2953 91.314 52.7076C91.314 52.1387 91.8005 51.7385 92.4355 51.7385C92.9515 51.7385 93.3158 51.9221 93.7497 52.3304L94.3478 51.7689C93.9076 51.332 93.3706 50.9905 92.4511 50.9905C91.377 50.9905 90.4524 51.705 90.4524 52.7107C90.4524 53.9574 91.3477 54.3073 92.3355 54.7106C92.9968 54.9662 93.5801 55.2973 93.5801 56.0013C93.5801 56.6948 92.9041 57.0384 92.3081 57.0384C91.6215 57.0384 91.1318 56.7857 90.678 56.1972L90.0222 56.7786C90.5381 57.4009 91.2414 57.7885 92.3323 57.7885C93.2916 57.7885 94.4624 57.2982 94.4624 55.9372C94.4624 54.9432 93.6728 54.3484 92.7207 53.9888ZM120.542 56.2714L116.835 51.1435H116.039V57.6649H116.858V52.5075L120.563 57.6649H121.359V51.1435H120.542L120.542 56.2714ZM122.912 51.8739H124.747V57.6649H125.586V51.8737H127.421V51.1435H122.912V51.8739ZM110.252 57.6649H114.078V56.9368H111.09V54.7473H113.566V54.0621H111.091V51.8726H114.078V51.1435H110.252V57.6649ZM67.4045 57.6649H68.2438V51.1437H67.4045V57.6649ZM75.011 56.2714L71.305 51.1435H70.5078V57.6649H71.3271V52.5075L75.032 57.6649H75.8286V51.1435H75.011V56.2714ZM80.289 56.6215L78.201 51.1435H77.2786L79.9322 57.6649H80.6451L83.2996 51.1435H82.375L80.289 56.6215ZM84.7475 57.6649H88.5721V56.9368H85.5857V54.7473H88.0591V54.0621H85.5857V51.8726H88.5721V51.1435H84.7475V57.6649ZM90.9465 41.8586C89.0289 41.461 87.5273 39.9675 87.1986 38.1312C87.0568 37.3401 87.0568 37.0258 87.1986 36.2348C87.6665 33.6212 90.278 31.9999 93.2135 32.5005C96.5232 33.0647 98.2168 36.3928 96.7258 39.4018C96.1792 40.5049 95.261 41.2716 93.9702 41.7023C93.1747 41.9682 91.8142 42.0386 90.9465 41.8586ZM93.2463 39.5711C94.828 38.8407 95.2296 36.6629 94.0203 35.3764C93.5865 34.9154 93.2486 34.7304 92.6318 34.6169C91.7839 34.461 90.9254 34.7436 90.3452 35.3699C89.8214 35.9354 89.6696 36.3429 89.6696 37.1829C89.6696 38.0267 89.8212 38.4302 90.3551 39.0064C91.1064 39.8173 92.2356 40.0379 93.2463 39.5711ZM67.4045 37.1829V32.6262L69.5352 32.6279C70.7072 32.6287 71.9172 32.6654 72.2238 32.7092C73.6694 32.9162 74.6989 33.8726 74.8825 35.1792C75.0321 36.2436 74.7161 37.1701 73.9725 37.8463C73.2821 38.474 72.8807 38.5924 71.2679 38.6448L69.9137 38.6888L69.892 40.2141L69.8705 41.7398H67.4045V37.1829ZM71.5113 36.8169C72.672 36.526 72.7046 34.8467 71.5556 34.5293C71.3974 34.4855 70.9543 34.4497 70.5708 34.4493L69.8737 34.4484V36.9051H70.5156C70.8686 36.9051 71.3167 36.8657 71.5113 36.8169ZM76.9633 37.1829V32.6262H79.4327V36.1923H82.4597V32.6262H84.9291V41.7396H82.4597V38.0941H79.4327V41.7396H76.9633V37.1829ZM99.4268 37.1829V32.6262H105.799V34.6072H101.891L101.913 35.4988L101.936 36.3905L103.509 36.4119L105.082 36.4334V38.0149H101.896V39.7584H105.799V41.7396H99.4268V37.1829ZM107.95 37.1808V32.6218L109.083 32.6438L110.216 32.6658L112.09 35.3163L113.964 37.9672L113.985 35.2966L114.006 32.6262H116.394V41.7438L115.225 41.722L114.057 41.7L112.219 39.1082C111.207 37.6826 110.353 36.5147 110.32 36.5129C110.287 36.5108 110.26 37.6862 110.26 39.1246V41.7396H107.95L107.95 37.1808ZM118.943 37.1829V32.6262H121.412V41.7396H118.943V37.1829ZM123.213 41.6424C123.246 41.5869 123.967 40.5361 124.816 39.3077L126.359 37.0737L124.936 34.9492C124.153 33.7804 123.486 32.7796 123.454 32.7251C123.407 32.6473 123.707 32.6266 124.853 32.6287L126.311 32.6314L127.105 33.9363C127.541 34.6542 127.918 35.241 127.941 35.2406C127.965 35.2398 128.342 34.6527 128.781 33.9349L129.577 32.63L131.036 32.6279C132.18 32.6262 132.482 32.6473 132.437 32.7251C132.405 32.7796 131.75 33.7513 130.982 34.8846C130.213 36.0177 129.585 36.9985 129.585 37.0637C129.586 37.1293 130.271 38.1693 131.107 39.3754C131.942 40.5812 132.65 41.6066 132.68 41.6537C132.717 41.7143 132.279 41.7386 131.195 41.7365L129.657 41.7333L128.823 40.3488C128.364 39.5874 127.961 38.9735 127.928 38.9848C127.895 38.9961 127.499 39.6117 127.048 40.3526L126.227 41.6998L124.69 41.7214C123.464 41.7386 123.165 41.7229 123.213 41.6424Z" fill="#051C36"/>
<defs>
<linearGradient id="paint0_linear_211:23" x1="24.2814" y1="10.6859" x2="24.2814" y2="77.3126" gradientUnits="userSpaceOnUse">
<stop stop-color="#051C36"/>
<stop offset="0.35" stop-color="#051C36"/>
<stop offset="1" stop-color="#ED1C24"/>
</linearGradient>
<linearGradient id="paint1_linear_211:23" x1="25.5868" y1="34.7153" x2="25.5868" y2="14.19" gradientUnits="userSpaceOnUse">
<stop stop-color="#051C36"/>
<stop offset="1" stop-color="#ED1C24"/>
</linearGradient>
<linearGradient id="paint2_linear_211:23" x1="19.8263" y1="49.0054" x2="19.8263" y2="10.709" gradientUnits="userSpaceOnUse">
<stop stop-color="#051C36"/>
<stop offset="1" stop-color="#ED1C24"/>
</linearGradient>
</defs>
</svg>
