<svg width="60" height="60" viewBox="0 0 60 60" fill="none" xmlns="http://www.w3.org/2000/svg">
<path d="M25.5 26.7383C25.5 27.6211 25.3359 28.3906 25.0078 29.0469C24.6875 29.6953 24.2461 30.2383 23.6836 30.6758C23.1289 31.1133 22.4727 31.4414 21.7148 31.6602C20.9648 31.8711 20.1602 31.9766 19.3008 31.9766H19.2305C19.0742 31.9766 18.9023 31.9727 18.7148 31.9648C18.5352 31.957 18.3594 31.9492 18.1875 31.9414C18.0234 31.9258 17.8789 31.9141 17.7539 31.9062C17.6367 31.8984 17.5625 31.8906 17.5312 31.8828V36.3477C17.5312 36.4648 17.5703 36.5781 17.6484 36.6875C17.7344 36.7969 17.8633 36.8594 18.0352 36.875L19.6172 36.9688V38H13.3125V36.9688L14.5781 36.875C14.75 36.8594 14.8789 36.7969 14.9648 36.6875C15.0586 36.5781 15.1055 36.4648 15.1055 36.3477V23.5508C15.1055 23.4336 15.0586 23.3203 14.9648 23.2109C14.8789 23.1016 14.75 23.0391 14.5781 23.0234L13.1367 22.9297V21.8984H18.8789C20.0117 21.8984 20.9922 21.9844 21.8203 22.1562C22.6562 22.3281 23.3438 22.6055 23.8828 22.9883C24.4297 23.3711 24.8359 23.8711 25.1016 24.4883C25.3672 25.0977 25.5 25.8477 25.5 26.7383ZM23.0039 26.7734C23.0039 26.1875 22.9258 25.668 22.7695 25.2148C22.6133 24.7539 22.3633 24.3672 22.0195 24.0547C21.6836 23.7344 21.2461 23.4922 20.707 23.3281C20.168 23.1562 19.5156 23.0703 18.75 23.0703C18.6406 23.0703 18.5156 23.0742 18.375 23.082C18.2344 23.082 18.1016 23.082 17.9766 23.082C17.8359 23.0898 17.6875 23.0938 17.5312 23.0938V30.6523C17.5469 30.6523 17.6055 30.6602 17.707 30.6758C17.8086 30.6836 17.9258 30.6992 18.0586 30.7227C18.1914 30.7383 18.332 30.7539 18.4805 30.7695C18.6289 30.7773 18.7617 30.7812 18.8789 30.7812H18.9492C19.5664 30.7812 20.125 30.7031 20.625 30.5469C21.125 30.3828 21.5508 30.1367 21.9023 29.8086C22.2539 29.4805 22.5234 29.0664 22.7109 28.5664C22.9062 28.0586 23.0039 27.4609 23.0039 26.7734Z" fill="url(#paint0_linear_801_868)"/>
<path d="M40.6641 38V36.9688L41.9414 36.875C42.1133 36.8594 42.2422 36.7969 42.3281 36.6875C42.4219 36.5781 42.4688 36.4648 42.4688 36.3477V23.1172L36.9492 38H35.7539L30.4219 23.3398V36.3477C30.4219 36.4648 30.4648 36.5781 30.5508 36.6875C30.6445 36.7969 30.7773 36.8594 30.9492 36.875L32.3203 36.9688V38H27.1289V36.9688L28.5 36.875C28.6719 36.8594 28.7969 36.7969 28.875 36.6875C28.9609 36.5781 29.0039 36.4648 29.0039 36.3477V23.5508C29.0039 23.4336 28.9609 23.3203 28.875 23.2109C28.7969 23.1016 28.6719 23.0391 28.5 23.0234L27.1289 22.9297V21.8984H32.5078V22.543L36.8555 34.332L41.2031 22.6133V21.8984H46.7227V22.9297L45.4219 23.0234C45.25 23.0391 45.1172 23.1016 45.0234 23.2109C44.9375 23.3203 44.8945 23.4336 44.8945 23.5508V36.3477C44.8945 36.4648 44.9375 36.5781 45.0234 36.6875C45.1172 36.7969 45.25 36.8594 45.4219 36.875L46.7227 36.9688V38H40.6641Z" fill="url(#paint1_linear_801_868)"/>
<circle cx="30" cy="30" r="29.5" stroke="url(#paint2_linear_801_868)" stroke-dasharray="2 2"/>
<defs>
<linearGradient id="paint0_linear_801_868" x1="11.3341" y1="31.3984" x2="46.7227" y2="31.3984" gradientUnits="userSpaceOnUse">
<stop stop-color="#E10714"/>
<stop offset="1" stop-color="#01213F"/>
</linearGradient>
<linearGradient id="paint1_linear_801_868" x1="11.3341" y1="31.3984" x2="46.7227" y2="31.3984" gradientUnits="userSpaceOnUse">
<stop stop-color="#E10714"/>
<stop offset="1" stop-color="#01213F"/>
</linearGradient>
<linearGradient id="paint2_linear_801_868" x1="-3.22034" y1="35.4" x2="60" y2="35.4" gradientUnits="userSpaceOnUse">
<stop stop-color="#E10714"/>
<stop offset="1" stop-color="#01213F"/>
</linearGradient>
</defs>
</svg>
